<?xml version="1.0" encoding="UTF-8"?>
<svg xmlns="http://www.w3.org/2000/svg" xmlns:xlink="http://www.w3.org/1999/xlink" width="256px" height="256px" viewBox="0 0 256 256" version="1.1">
<g id="surface1">
<path style=" stroke:none;fill-rule:nonzero;fill:rgb(0%,0%,0%);fill-opacity:1;" d="M 76.753906 52.871094 C 77.4375 52.867188 77.4375 52.867188 78.136719 52.863281 C 79.65625 52.859375 81.175781 52.859375 82.695312 52.863281 C 83.792969 52.859375 84.886719 52.859375 85.980469 52.855469 C 88.945312 52.847656 91.910156 52.847656 94.875 52.847656 C 97.355469 52.851562 99.832031 52.847656 102.3125 52.84375 C 108.496094 52.839844 114.679688 52.839844 120.863281 52.84375 C 125.890625 52.84375 130.917969 52.839844 135.941406 52.832031 C 141.789062 52.820312 147.640625 52.816406 153.488281 52.816406 C 156.578125 52.820312 159.667969 52.816406 162.761719 52.8125 C 165.667969 52.804688 168.578125 52.804688 171.488281 52.8125 C 172.550781 52.8125 173.613281 52.8125 174.679688 52.808594 C 183.050781 52.777344 190.167969 53.09375 196.644531 59.050781 C 201.476562 64.164062 203.160156 69.855469 203.128906 76.753906 C 203.132812 77.210938 203.132812 77.667969 203.136719 78.136719 C 203.140625 79.65625 203.140625 81.175781 203.136719 82.695312 C 203.140625 83.792969 203.140625 84.886719 203.144531 85.980469 C 203.152344 88.945312 203.152344 91.910156 203.152344 94.875 C 203.148438 97.355469 203.152344 99.832031 203.15625 102.3125 C 203.160156 108.496094 203.160156 114.679688 203.15625 120.863281 C 203.15625 125.890625 203.160156 130.917969 203.167969 135.941406 C 203.179688 141.789062 203.183594 147.640625 203.183594 153.488281 C 203.179688 156.578125 203.183594 159.667969 203.1875 162.761719 C 203.195312 165.667969 203.195312 168.578125 203.1875 171.488281 C 203.1875 172.550781 203.1875 173.613281 203.191406 174.679688 C 203.222656 183.050781 202.90625 190.167969 196.945312 196.644531 C 191.835938 201.476562 186.144531 203.160156 179.242188 203.128906 C 178.558594 203.132812 178.558594 203.132812 177.859375 203.136719 C 176.335938 203.140625 174.816406 203.140625 173.296875 203.136719 C 172.199219 203.140625 171.105469 203.140625 170.007812 203.144531 C 167.042969 203.152344 164.074219 203.152344 161.109375 203.152344 C 158.628906 203.148438 156.148438 203.152344 153.667969 203.15625 C 147.480469 203.160156 141.296875 203.160156 135.109375 203.15625 C 130.078125 203.15625 125.050781 203.160156 120.019531 203.167969 C 114.167969 203.179688 108.316406 203.183594 102.464844 203.183594 C 99.371094 203.179688 96.28125 203.183594 93.1875 203.1875 C 90.277344 203.195312 87.367188 203.195312 84.457031 203.1875 C 83.390625 203.1875 82.328125 203.1875 81.261719 203.191406 C 70.902344 203.230469 70.902344 203.230469 66.5 201.5 C 66.140625 201.359375 65.777344 201.21875 65.40625 201.078125 C 60.472656 199.027344 56.71875 194.75 54.5 190 C 52.453125 184.570312 52.789062 178.835938 52.804688 173.132812 C 52.804688 172.039062 52.800781 170.945312 52.796875 169.847656 C 52.792969 166.890625 52.792969 163.933594 52.796875 160.972656 C 52.800781 157.867188 52.796875 154.765625 52.796875 151.660156 C 52.792969 146.117188 52.796875 140.570312 52.804688 135.027344 C 52.8125 130.007812 52.8125 124.992188 52.804688 119.972656 C 52.796875 114.132812 52.792969 108.292969 52.796875 102.453125 C 52.800781 99.367188 52.800781 96.28125 52.796875 93.191406 C 52.792969 90.289062 52.792969 87.386719 52.804688 84.484375 C 52.804688 83.425781 52.804688 82.363281 52.800781 81.300781 C 52.777344 72.941406 53.101562 65.824219 59.050781 59.355469 C 64.164062 54.523438 69.855469 52.839844 76.753906 52.871094 Z M 75 75 C 75 109.980469 75 144.960938 75 181 C 109.980469 181 144.960938 181 181 181 C 181 146.019531 181 111.039062 181 75 C 146.019531 75 111.039062 75 75 75 Z M 75 75 "/>
<path style=" stroke:none;fill-rule:nonzero;fill:rgb(0%,0%,0%);fill-opacity:1;" d="M 96 96 C 117.121094 96 138.238281 96 160 96 C 160 117.121094 160 138.238281 160 160 C 138.878906 160 117.761719 160 96 160 C 96 138.878906 96 117.761719 96 96 Z M 96 96 "/>
</g>
</svg>
